# xmcd
#
# Track frame offsets:
#	150
#	19751
#	43145
#
# Disc length: 872 seconds
#
# Revision: 0
# Processed by: cddbd v1.5.2PL0 Copyright (c) Steve Scherf et al.
# Submitted via: audiograbber 1.83.01
#
DISCID=1e036603
DTITLE=Gebroeders Ko - Wienerschnitzel [CDs)
DYEAR=2008
DGENRE=voetbal
TTITLE0=Wienerschnitzel
TTITLE1=The sound of Victory
TTITLE2=Gegevens track
EXTD=
EXTT0=
EXTT1=
EXTT2=
PLAYORDER=
